<svg xmlns="http://www.w3.org/2000/svg" viewBox="0 0 214.34 55.22"><defs><style>.cls-1{font-size:36.82px;font-family:AvenirNext-Regular, Avenir Next;}.cls-1,.cls-3{fill:#fff;}.cls-2{letter-spacing:-0.05em;}.cls-4{fill:#272727;}</style></defs><title>Asset 1</title><g id="Layer_2" data-name="Layer 2"><g id="Layer_1-2" data-name="Layer 1"><text class="cls-1" transform="translate(50.79 40.08)">Home<tspan class="cls-2" x="102.5" y="0">F</tspan><tspan x="121.43" y="0">air</tspan></text><path id="dboCiotiQ" class="cls-3" d="M28.75,8A8.14,8.14,0,0,1,12.47,8,8.14,8.14,0,0,1,28.75,8Z"/><path id="c9NChVmQC" class="cls-3" d="M22.22,18.69l1.72-5.62H17.06l1.72,5.62L20.5,24.3Z"/><path id="b4P0SswNmf" class="cls-3" d="M33.73,38.1A1.6,1.6,0,0,1,34,40.35c-.2.26.2-.25,0,0a1.59,1.59,0,0,1-2.25.28C26.84,36.81,13.34,26.3,8.41,22.48a1.62,1.62,0,0,1-.27-2.26h0a1.59,1.59,0,0,1,2.24-.28Z"/><path id="flvmlSBkx" class="cls-3" d="M25.94,43.72A1.61,1.61,0,0,1,26.21,46c-.19.26.2-.25,0,0a1.6,1.6,0,0,1-2.24.29L.62,28.09a1.6,1.6,0,0,1-.28-2.25c.19-.25-.2.25,0,0a1.61,1.61,0,0,1,2.25-.28Z"/><path id="dpZSMxoVn" class="cls-3" d="M13.77,36.74a1.3,1.3,0,0,1-1.83-.21l-.37-.48a1.3,1.3,0,0,1,.21-1.83c4-3.12,14.85-11.71,18.82-14.82a1.29,1.29,0,0,1,1.82.21c.23.3.14.18.38.47a1.3,1.3,0,0,1-.22,1.83Z"/><path id="d2iZLvEdAz" class="cls-4" d="M16.45,6.39h8.33v6H16.45Z"/><path id="e34NAUET9t" class="cls-3" d="M19.9,9.37h1.69V13.5H19.9Z"/><path id="a2fUcm9bOB" class="cls-4" d="M21.78,2.55h1.69V8.13H21.78Z"/><path id="bRXU7g7o7" class="cls-4" d="M23.2,4.61l2.57,2.08H15.46L18,4.61l2.59-2.06Z"/><path class="cls-3" d="M41.41,25.27c-.23-.29-.14-.17-.37-.48a1.31,1.31,0,0,0-1.83-.21l-13,10.27a4.47,4.47,0,0,1,2.36,2.22l12.65-10A1.3,1.3,0,0,0,41.41,25.27Z"/></g></g></svg>