<?xml version="1.0" encoding="UTF-8" standalone="no"?>
<!DOCTYPE svg PUBLIC "-//W3C//DTD SVG 1.1//EN" "http://www.w3.org/Graphics/SVG/1.1/DTD/svg11.dtd">
<svg version="1.1" xmlns="http://www.w3.org/2000/svg" xmlns:xlink="http://www.w3.org/1999/xlink" preserveAspectRatio="xMidYMid meet" viewBox="174.6092247649155 293.58105506816116 48.28490663999298 54.80367083431992" width="44.28" height="50.8"><defs><path d="M206.96 303.33C206.96 308.16 202.98 312.08 198.09 312.08C193.19 312.08 189.21 308.16 189.21 303.33C189.21 298.5 193.19 294.58 198.09 294.58C202.98 294.58 206.96 298.5 206.96 303.33Z" id="dboCiotiQ"></path><path d="M199.84 314.96L201.71 308.83L197.96 308.83L194.21 308.83L196.09 314.96L197.96 321.08L199.84 314.96Z" id="c9NChVmQC"></path><path d="M212.39 336.13C213.15 336.72 213.29 337.82 212.69 338.58C212.48 338.86 212.91 338.31 212.69 338.58C212.1 339.35 211 339.48 210.24 338.89C204.87 334.72 190.15 323.26 184.78 319.09C184.02 318.49 183.88 317.39 184.48 316.63C184.69 316.36 184.26 316.91 184.48 316.63C185.07 315.87 186.17 315.73 186.93 316.32C192.3 320.5 207.02 331.95 212.39 336.13Z" id="b4P0SswNmf"></path><path d="M203.89 342.25C204.65 342.85 204.79 343.95 204.19 344.71C203.98 344.99 204.41 344.43 204.19 344.71C203.6 345.47 202.5 345.61 201.74 345.02C196.37 340.84 181.65 329.39 176.28 325.21C175.52 324.62 175.38 323.52 175.98 322.76C176.19 322.48 175.76 323.03 175.98 322.76C176.57 321.99 177.67 321.86 178.43 322.45C183.8 326.63 198.52 338.08 203.89 342.25Z" id="flvmlSBkx"></path><path d="M190.62 334.64C190 335.13 189.11 335.02 188.63 334.41C188.37 334.08 188.47 334.21 188.22 333.89C187.73 333.27 187.84 332.38 188.45 331.89C192.78 328.49 204.64 319.13 208.97 315.73C209.58 315.24 210.47 315.35 210.96 315.96C211.21 316.29 211.11 316.16 211.37 316.48C211.85 317.1 211.75 317.99 211.13 318.47C206.81 321.88 194.94 331.23 190.62 334.64Z" id="dpZSMxoVn"></path><path d="M206.99 333.55C206.61 333.84 206.06 333.78 205.77 333.4C205.44 332.99 205 332.43 204.68 332.02C204.38 331.64 204.44 331.1 204.82 330.8C207.47 328.71 214.74 322.98 217.4 320.89C217.77 320.59 218.32 320.65 218.62 321.03C218.94 321.44 219.38 322 219.71 322.41C220 322.79 219.94 323.34 219.56 323.63C216.91 325.72 209.64 331.46 206.99 333.55Z" id="agIQkCtLg"></path><path d="M193.54 301.55L202.63 301.55L202.63 308.04L193.54 308.04L193.54 301.55Z" id="d2iZLvEdAz"></path><path d="M197.31 304.8L199.15 304.8L199.15 309.3L197.31 309.3L197.31 304.8Z" id="e34NAUET9t"></path><path d="M199.36 297.36L201.2 297.36L201.2 303.44L199.36 303.44L199.36 297.36Z" id="a2fUcm9bOB"></path><path d="M200.9 299.61L203.71 301.87L198.09 301.87L192.46 301.87L195.27 299.61L198.09 297.36L200.9 299.61Z" id="bRXU7g7o7"></path></defs><g><g><use xlink:href="#dboCiotiQ" opacity="1" fill="#ffffff" fill-opacity="1"></use></g><g><use xlink:href="#c9NChVmQC" opacity="1" fill="#ffffff" fill-opacity="1"></use></g><g><use xlink:href="#b4P0SswNmf" opacity="1" fill="#ffffff" fill-opacity="1"></use></g><g><use xlink:href="#flvmlSBkx" opacity="1" fill="#ffffff" fill-opacity="1"></use></g><g><use xlink:href="#dpZSMxoVn" opacity="1" fill="#ffffff" fill-opacity="1"></use></g><g><use xlink:href="#agIQkCtLg" opacity="1" fill="#ffffff" fill-opacity="1"></use></g><g><use xlink:href="#d2iZLvEdAz" opacity="1" fill="#272727" fill-opacity="1"></use></g><g><use xlink:href="#e34NAUET9t" opacity="1" fill="#ffffff" fill-opacity="1"></use></g><g><use xlink:href="#a2fUcm9bOB" opacity="1" fill="#272727" fill-opacity="1"></use></g><g><use xlink:href="#bRXU7g7o7" opacity="1" fill="#272727" fill-opacity="1"></use></g></g></svg>